<svg width="123" height="42" viewBox="0 0 123 42" fill="none" xmlns="http://www.w3.org/2000/svg">
<g clip-path="url(#clip0_287_120)">
<path d="M55.2939 30.6409V15.6331C55.2939 14.3301 55.689 13.2903 56.4791 12.5138C57.2693 11.7373 58.3006 11.3491 59.5729 11.3491H67.4334V15.8026H60.8148V30.6409H55.2939Z" fill="white"/>
<path d="M71.1387 30.6407V11.2822H76.6596V19.3065L84.0324 11.3389H90.6667L82.6783 19.4609V17.8497L91.0001 30.6407H84.6637L79.4403 22.4828L76.6596 25.1967V30.6407H71.1387Z" fill="white"/>
<path d="M94.0576 30.6407V11.354H99.5886V30.6407H94.0576Z" fill="white"/>
<path d="M1 30.6407V11.354H6.53102V30.6407H1Z" fill="white"/>
<path d="M11.5693 30.6407V11.354H17.1003V30.6407H11.5693Z" fill="white"/>
<path d="M22.1387 30.6407V11.354H27.6697V30.6407H22.1387Z" fill="white"/>
<path d="M102.38 30.6409L109.399 20.4666L102.888 11.3491H109.368L113.057 17.2903H113.35L117.018 11.3491H123.437L116.992 20.4307L123.971 30.6409H117.387L113.211 24.1912H112.893L108.722 30.6409H102.38Z" fill="white"/>
<path d="M38.8294 31C37.1193 31 35.7178 30.6092 34.625 29.8277C33.5322 29.0461 32.7284 27.9379 32.2136 26.503C31.6988 25.068 31.4414 23.3791 31.4414 21.4363V20.6254C31.4414 18.9321 31.6116 17.4801 31.9518 16.2692C32.2921 15.0584 32.7881 14.0613 33.4398 13.2781C34.0915 12.4949 34.874 11.9194 35.7872 11.5516C36.7005 11.1839 37.7181 11 38.8401 11C40.1125 11 41.2523 11.2813 42.2597 11.844C43.267 12.4067 44.0084 13.1909 44.4839 14.1965H44.7505L45.0277 11.3491H50.2456V30.6408H44.7505V27.8136H44.4839C44.0017 28.8058 43.2551 29.5849 42.2442 30.1509C41.2333 30.717 40.0951 31 38.8294 31ZM41.041 26.5206C42.163 26.5206 43.0576 26.1761 43.7246 25.4869C44.3917 24.7978 44.7252 23.8324 44.7252 22.5907V19.42C44.7252 18.5853 44.5738 17.8755 44.2709 17.2906C43.9681 16.7056 43.5431 16.2559 42.9959 15.9412C42.4488 15.6266 41.7971 15.4693 41.041 15.4693C40.2681 15.4693 39.6045 15.6223 39.0502 15.9283C38.496 16.2343 38.0701 16.6755 37.7727 17.2519C37.4753 17.8282 37.3266 18.5286 37.3266 19.3532V22.6827C37.3266 23.4833 37.4753 24.1701 37.7727 24.7431C38.0701 25.3161 38.496 25.7556 39.0502 26.0616C39.6045 26.3676 40.2681 26.5206 41.041 26.5206Z" fill="white"/>
</g>
<defs>
<clipPath id="clip0_287_120">
<rect width="123" height="42" fill="white"/>
</clipPath>
</defs>
</svg>
