<svg width="123" height="42" viewBox="0 0 123 42" fill="none" xmlns="http://www.w3.org/2000/svg">
<rect width="123" height="42" fill="transparent"/>
<path d="M0 30.6408V11.3541H5.53102V30.6408H0Z" fill="white"/>
<path d="M10.5695 30.6408V11.3541H16.1005V30.6408H10.5695Z" fill="white"/>
<path d="M21.139 30.6408V11.3541H26.67V30.6408H21.139Z" fill="white"/>
<path d="M54.2942 30.6409V15.6331C54.2942 14.3301 54.6893 13.2903 55.4794 12.5138C56.2696 11.7373 57.3009 11.3491 58.5732 11.3491H66.4337V15.8026H59.8151V30.6409H54.2942Z" fill="white"/>
<path d="M70.1382 30.6408V11.2823H75.6591V19.3066L83.0319 11.339H89.6662L81.6778 19.461V17.8498L89.9996 30.6408H83.6632L78.4398 22.4829L75.6591 25.1968V30.6408H70.1382Z" fill="white"/>
<path d="M93.0578 30.6408V11.3541H98.5888V30.6408H93.0578Z" fill="white"/>
<path d="M101.38 30.6409L108.399 20.4666L101.888 11.3491H108.368L112.057 17.2903H112.35L116.018 11.3491H122.437L115.992 20.4307L122.971 30.6409H116.387L112.211 24.1912H111.893L107.722 30.6409H101.38Z" fill="white"/>
<path d="M0 30.6408V11.3541H5.53102V30.6408H0Z" fill="white"/>
<path d="M10.5695 30.6408V11.3541H16.1005V30.6408H10.5695Z" fill="white"/>
<path d="M21.139 30.6408V11.3541H26.67V30.6408H21.139Z" fill="white"/>
<path d="M101.38 30.6409L108.399 20.4666L101.888 11.3491H108.368L112.057 17.2903H112.35L116.018 11.3491H122.437L115.992 20.4307L122.971 30.6409H116.387L112.211 24.1912H111.893L107.722 30.6409H101.38Z" fill="white"/>
<path d="M37.8293 31C36.1192 31 34.7177 30.6092 33.6249 29.8277C32.5321 29.0461 31.7283 27.9379 31.2135 26.503C30.6987 25.068 30.4413 23.3791 30.4413 21.4363V20.6254C30.4413 18.9321 30.6115 17.4801 30.9517 16.2692C31.292 15.0584 31.788 14.0613 32.4397 13.2781C33.0914 12.4949 33.8739 11.9194 34.7871 11.5516C35.7004 11.1839 36.718 11 37.84 11C39.1124 11 40.2522 11.2813 41.2596 11.844C42.2669 12.4067 43.0083 13.1909 43.4838 14.1965H43.7504L44.0276 11.3491H49.2455V30.6408H43.7504V27.8136H43.4838C43.0016 28.8058 42.255 29.5849 41.2441 30.1509C40.2332 30.717 39.095 31 37.8293 31ZM40.0409 26.5206C41.1629 26.5206 42.0575 26.1761 42.7245 25.4869C43.3916 24.7978 43.7251 23.8324 43.7251 22.5907V19.42C43.7251 18.5853 43.5737 17.8755 43.2708 17.2906C42.968 16.7056 42.543 16.2559 41.9958 15.9412C41.4487 15.6266 40.797 15.4693 40.0409 15.4693C39.268 15.4693 38.6044 15.6223 38.0501 15.9283C37.4959 16.2343 37.07 16.6755 36.7726 17.2519C36.4752 17.8282 36.3265 18.5286 36.3265 19.3532V22.6827C36.3265 23.4833 36.4752 24.1701 36.7726 24.7431C37.07 25.3161 37.4959 25.7556 38.0501 26.0616C38.6044 26.3676 39.268 26.5206 40.0409 26.5206Z" fill="white"/>
</svg>
